<svg width="20" height="20" viewBox="0 0 20 20" fill="none" xmlns="http://www.w3.org/2000/svg">
<path d="M10 0C5.6 0 2 3.6 2 8C2 13.4 9 19.5 9.3 19.8C9.5 19.9 9.8 20 10 20C10.2 20 10.5 19.9 10.7 19.8C11 19.5 18 13.4 18 8C18 3.6 14.4 0 10 0ZM10 17.7C7.9 15.7 4 11.4 4 8C4 4.7 6.7 2 10 2C13.3 2 16 4.7 16 8C16 11.3 12.1 15.7 10 17.7ZM10 4C7.8 4 6 5.8 6 8C6 10.2 7.8 12 10 12C12.2 12 14 10.2 14 8C14 5.8 12.2 4 10 4ZM10 10C8.9 10 8 9.1 8 8C8 6.9 8.9 6 10 6C11.1 6 12 6.9 12 8C12 9.1 11.1 10 10 10Z" fill="#219653"/>
</svg>
