<svg width="20" height="20" viewBox="0 0 20 20" fill="none" xmlns="http://www.w3.org/2000/svg">
<path d="M9.65441 4.15075C11.1813 4.15075 12.62 4.85628 13.6744 5.95921V5.96246C13.6744 5.43282 14.0163 5.03217 14.4888 5.03217H14.6088C15.3544 5.03217 15.5038 5.76507 15.5038 5.99634L15.5069 14.2276C15.455 14.767 16.0413 15.0458 16.3669 14.6992C17.6325 13.3422 19.1494 7.7162 15.5788 4.45889C12.2488 1.41851 7.77941 1.92079 5.40316 3.62762C2.87754 5.44651 1.26317 9.46407 2.83129 13.2399C4.54379 17.3565 9.43941 18.5845 12.3532 17.3598C13.8281 16.739 14.5081 18.8145 12.975 19.494C10.6644 20.5213 4.22504 20.4165 1.21754 14.9878C-0.81433 11.3207 -0.706831 4.86996 4.68441 1.52796C8.80503 -1.03033 14.2419 -0.321542 17.5194 3.24521C20.9444 6.97744 20.7463 13.9605 17.4025 16.6751C15.8881 17.9096 13.6394 16.709 13.6557 14.9103L13.6388 14.324C12.5844 15.4126 11.1813 16.051 9.65441 16.051C6.63378 16.051 3.97441 13.2784 3.97441 10.1331C3.97441 6.95399 6.63378 4.15205 9.65441 4.15205V4.15075ZM13.4538 9.90576C13.3394 7.60154 11.6988 6.21393 9.71628 6.21393H9.64128C7.35628 6.21393 6.08691 8.09014 6.08691 10.2172C6.08691 12.6022 7.62003 14.1083 9.63191 14.1083C11.8775 14.1083 13.3519 12.3957 13.4594 10.3696L13.4538 9.90576Z" fill="#219653"/>
</svg>
