<svg width="187" height="131" viewBox="0 0 187 131" fill="none" xmlns="http://www.w3.org/2000/svg">
<path d="M50.9672 123.833H48.4965V129.833H46.8999V123.162H50.8275L50.9672 123.833Z" fill="#221108"/>
<path d="M51.6756 128.771C51.809 128.65 51.9841 128.584 52.1646 128.588C52.2565 128.587 52.3478 128.604 52.4331 128.638C52.5184 128.672 52.5961 128.722 52.6615 128.787C52.7337 128.851 52.7908 128.931 52.8291 129.019C52.8673 129.108 52.8857 129.204 52.883 129.301C52.8866 129.399 52.8686 129.497 52.8303 129.588C52.7921 129.679 52.7345 129.76 52.6615 129.827C52.5239 129.946 52.3469 130.01 52.1646 130.007C51.9845 130.011 51.8097 129.946 51.6756 129.827C51.6029 129.76 51.5456 129.679 51.5077 129.588C51.4698 129.497 51.4522 129.399 51.4561 129.301C51.4523 129.202 51.4699 129.103 51.5078 129.012C51.5457 128.92 51.6029 128.838 51.6756 128.771Z" fill="#221108"/>
<path d="M61.8676 126.968C62.0272 127.392 62.0272 127.86 61.8676 128.284C61.6903 128.761 61.3562 129.164 60.9196 129.428C60.3663 129.771 59.7232 129.943 59.0716 129.922C58.7269 129.939 58.3824 129.886 58.0582 129.769C57.734 129.651 57.4367 129.471 57.1836 129.237L57.8063 128.618C57.9227 128.814 58.0876 128.977 58.2853 129.092C58.483 129.207 58.7069 129.27 58.9359 129.275C59.1439 129.279 59.35 129.234 59.5368 129.143C59.7237 129.052 59.8858 128.917 60.0096 128.751C60.262 128.423 60.3937 128.02 60.3828 127.607C60.3828 126.756 59.9138 126.331 58.9758 126.331V125.664C59.7594 125.664 60.1519 125.359 60.1533 124.749C60.1593 124.493 60.0745 124.243 59.9138 124.044C59.8223 123.937 59.7075 123.852 59.5782 123.796C59.4489 123.739 59.3084 123.713 59.1674 123.718C58.976 123.723 58.7889 123.775 58.623 123.87C58.4571 123.965 58.3177 124.1 58.2174 124.262L57.6765 123.71C57.8915 123.496 58.1488 123.329 58.4323 123.219C58.7157 123.109 59.019 123.058 59.323 123.071C59.7989 123.056 60.2698 123.171 60.6841 123.405C61.0072 123.578 61.2634 123.853 61.4126 124.187C61.5455 124.483 61.5723 124.816 61.4884 125.13C61.4051 125.462 61.2091 125.755 60.9336 125.96C61.1488 126.058 61.3422 126.197 61.5026 126.37C61.6629 126.543 61.787 126.747 61.8676 126.968Z" fill="#221108"/>
<path d="M65.4122 128.665H63.4165L63.157 129.837H62.229L63.8655 123.166H65.8014L67.4399 129.837H65.6677L65.4122 128.665ZM65.2685 127.998L64.4163 124.187L63.5641 127.998H65.2685Z" fill="#221108"/>
<path d="M73.3729 123.166V129.833H71.7763V123.833H69.5111V129.833H67.9146V123.162L73.3729 123.166Z" fill="#221108"/>
<path d="M77.0352 128.665H75.0395L74.7801 129.837H73.8521L75.4906 123.166H77.4344L79.0729 129.837H77.3007L77.0352 128.665ZM76.8916 127.998L76.0374 124.187L75.1852 127.998H76.8916Z" fill="#221108"/>
<path d="M86.5627 129.17V129.833L86.0159 131H85.479V129.833H80.3839V130.996H79.8491L79.3022 129.833V129.166C79.4767 129.163 79.6476 129.116 79.7985 129.029C79.9495 128.943 80.0755 128.819 80.1644 128.669C80.4226 128.274 80.5496 127.808 80.5276 127.337V123.168H85.7165V129.172L86.5627 129.17ZM84.1299 129.17V123.919H81.9466V127.311C81.9466 128.12 81.6945 128.739 81.1902 129.17H84.1299Z" fill="#221108"/>
<path d="M92.7337 123.166V129.833H91.1371V126.168H88.872V129.833H87.2754V123.162H88.872V125.497H91.1431V123.166H92.7337Z" fill="#221108"/>
<path d="M96.3937 128.665H94.3979L94.1385 129.837H93.2104L94.847 123.166H96.7928L98.4313 129.837H96.6591L96.3937 128.665ZM96.25 127.998L95.3958 124.187L94.5436 127.998H96.25Z" fill="#221108"/>
<path d="M103.922 123.166V129.833H102.325V126.416H101.972L100.08 129.833H98.4233L100.357 126.307C99.8718 126.269 99.4196 126.048 99.0939 125.688C98.9644 125.544 98.8668 125.375 98.8073 125.191C98.7478 125.007 98.7278 124.813 98.7486 124.621C98.7633 124.425 98.8186 124.234 98.911 124.06C99.0033 123.887 99.1309 123.734 99.2855 123.611C99.689 123.298 100.191 123.139 100.702 123.162L103.922 123.166ZM101.259 123.833C101.117 123.826 100.975 123.848 100.842 123.897C100.708 123.946 100.586 124.022 100.483 124.119C100.398 124.201 100.331 124.299 100.285 124.407C100.239 124.515 100.214 124.631 100.214 124.749C100.212 124.865 100.234 124.982 100.278 125.09C100.323 125.198 100.389 125.296 100.473 125.378C100.578 125.476 100.701 125.552 100.837 125.601C100.972 125.65 101.116 125.672 101.259 125.664H102.321V123.833H101.259Z" fill="#221108"/>
<path d="M115.733 129.17V129.833L115.178 130.996H114.641V129.833H109.554V130.996H109.017L108.472 129.833V129.166C108.647 129.163 108.817 129.116 108.968 129.029C109.119 128.943 109.245 128.819 109.334 128.669C109.592 128.274 109.719 127.808 109.698 127.337V123.168H114.886V129.171L115.733 129.17ZM113.3 129.17V123.919H111.117V127.311C111.117 128.12 110.864 128.739 110.358 129.17H113.3Z" fill="#221108"/>
<path d="M119.794 123.166C119.858 123.166 119.922 123.176 119.994 123.176C120.241 123.177 120.486 123.229 120.712 123.33C120.938 123.43 121.14 123.576 121.307 123.758C121.554 124.058 121.686 124.436 121.68 124.824C121.687 125.068 121.632 125.31 121.522 125.528C121.412 125.746 121.249 125.933 121.047 126.073C121.359 126.25 121.618 126.507 121.797 126.816C121.975 127.126 122.067 127.478 122.063 127.836C122.069 128.295 121.91 128.741 121.614 129.094C121.183 129.531 120.601 129.79 119.986 129.819C119.89 129.819 119.786 129.819 119.688 129.819C119.59 129.819 119.535 129.819 119.489 129.819H116.451V123.148L119.794 123.166ZM118.042 123.833V125.664H119.229C119.346 125.667 119.463 125.645 119.571 125.599C119.678 125.552 119.774 125.483 119.852 125.396C120.011 125.221 120.096 124.993 120.091 124.758C120.098 124.521 120.016 124.29 119.862 124.109C119.789 124.021 119.698 123.951 119.594 123.903C119.491 123.855 119.377 123.831 119.263 123.833H118.042ZM119.267 129.17C119.434 129.172 119.598 129.135 119.748 129.062C119.898 128.989 120.028 128.883 120.129 128.751C120.356 128.469 120.48 128.119 120.48 127.758C120.48 127.397 120.356 127.047 120.129 126.766C120.021 126.626 119.881 126.514 119.721 126.438C119.562 126.362 119.386 126.324 119.209 126.327H118.05V129.166L119.267 129.17Z" fill="#221108"/>
<path d="M128.463 123.166V129.833H126.867V125.465L124.184 129.833H123.005V123.162H124.601V127.53L127.284 123.162L128.463 123.166Z" fill="#221108"/>
<path d="M134.873 123.166V129.833H133.277V126.168H131.012V129.833H129.415V123.162H131.012V125.497H133.283V123.166H134.873Z" fill="#221108"/>
<path d="M138.532 128.665H136.536L136.277 129.837H135.349L136.985 123.166H138.921L140.559 129.837H138.787L138.532 128.665ZM138.388 127.998L137.536 124.187L136.684 127.998H138.388Z" fill="#221108"/>
<path d="M12.4033 99.7031V111.944H9.48556V100.928H5.47614V107.467C5.47614 108.879 5.04306 109.981 4.17692 110.773C3.31077 111.564 2.12663 111.955 0.624512 111.944V110.876C1.25782 110.876 1.78536 110.573 2.20713 109.967C2.65151 109.338 2.87437 108.522 2.8757 107.519V99.7031H12.4033Z" fill="#221108"/>
<path d="M22.1528 110.719L21.9253 111.944H14.1699V99.7031H21.5541L21.7816 100.928H17.0957V103.987H19.5404V105.216H17.0957V110.723L22.1528 110.719Z" fill="#221108"/>
<path d="M29.6127 110.493C29.7463 110.382 29.8692 110.259 29.9799 110.125C30.0847 110.018 30.1789 109.901 30.2613 109.776L31.5106 111.017C30.7251 111.794 29.6645 112.233 28.5569 112.24C26.6809 112.24 25.1928 111.578 24.0925 110.254C23.0973 109.043 22.599 107.569 22.5977 105.831C22.5963 104.094 23.0886 102.619 24.0745 101.408C25.1761 100.066 26.6643 99.3959 28.5389 99.3972C29.5954 99.3972 30.5679 99.828 31.4567 100.69L30.3351 101.801C30.13 101.502 29.8812 101.234 29.5967 101.007C29.2995 100.762 28.9268 100.626 28.5409 100.622C27.6096 100.634 26.8599 101.171 26.2918 102.232C25.7862 103.198 25.5281 104.375 25.5174 105.764C25.5068 107.152 25.7529 108.323 26.2558 109.278C26.8186 110.35 27.5803 110.886 28.5409 110.886C28.9323 110.877 29.3095 110.739 29.6127 110.493Z" fill="#221108"/>
<path d="M42.4254 99.7031V111.944H39.5156V105.216H35.3426V111.948H32.4248V99.7031H35.3426V103.987H39.5156V99.7031H42.4254Z" fill="#221108"/>
<path d="M53.7112 104.075C54.4355 104.996 54.8082 106.142 54.7633 107.311C54.7183 108.479 54.2586 109.594 53.4657 110.457C52.4918 111.448 51.138 111.944 49.4044 111.944H44.1836V99.7031H47.0994V104.18C48.0613 103.226 49.28 102.748 50.7555 102.746C51.3175 102.728 51.8762 102.838 52.3887 103.069C52.9011 103.299 53.3536 103.643 53.7112 104.075ZM47.1013 110.626H47.4366L47.7699 110.644C48.0753 110.656 48.3267 110.656 48.5263 110.644C49.0329 110.647 49.5368 110.57 50.0191 110.415C51.1567 110.018 51.7314 109.016 51.7434 107.408C51.7748 106.612 51.5922 105.821 51.2145 105.119C50.8048 104.408 50.2486 104.058 49.5461 104.069C48.9707 104.098 48.416 104.292 47.9495 104.628C47.5815 104.885 47.2898 105.235 47.1053 105.643L47.1013 110.626ZM56.154 111.938V99.7031H59.0737V111.944L56.154 111.938Z" fill="#221108"/>
<path d="M68.793 110.719L68.5654 111.944H60.812V99.7031H68.1783L68.4058 100.928H63.7318V103.987H66.1745V105.216H63.7318V110.723L68.793 110.719Z" fill="#221108"/>
<path d="M85.0701 99.7031L85.2996 100.928H82.0247V111.944H79.1109V100.928H75.8379L76.0674 99.7031H85.0701Z" fill="#221108"/>
<path d="M94.1587 110.719L93.9292 111.944H86.1777V99.7031H93.544L93.7715 100.928H89.0955V103.987H91.5383V105.216H89.0955V110.723L94.1587 110.719Z" fill="#221108"/>
<path d="M101.102 111.944L98.747 107.94L96.0388 111.944H94.2805L97.9906 106.489L94.1768 99.7031H97.5156L99.8706 103.707L102.581 99.7031H104.339L100.647 105.159L104.439 111.944H101.102Z" fill="#221108"/>
<path d="M115.339 99.7031V111.944H112.422V105.216H108.257V111.948H105.339V99.7031H108.257V103.987H112.422V99.7031H115.339Z" fill="#221108"/>
<path d="M126.959 101.347C128.023 102.584 128.555 104.088 128.555 105.859C128.555 107.606 128.028 109.092 126.973 110.318C125.847 111.6 124.394 112.241 122.614 112.24C120.834 112.238 119.375 111.592 118.237 110.3C117.173 109.076 116.641 107.584 116.641 105.823C116.641 104.063 117.173 102.571 118.237 101.347C118.774 100.718 119.446 100.217 120.204 99.8813C120.961 99.5453 121.785 99.3826 122.614 99.4052C123.438 99.3823 124.257 99.5451 125.01 99.8813C125.762 100.217 126.428 100.718 126.959 101.347ZM120.421 109.355C121.006 110.37 121.738 110.877 122.616 110.876C123.518 110.876 124.262 110.34 124.847 109.268C125.39 108.2 125.673 107.02 125.673 105.823C125.673 104.627 125.39 103.447 124.847 102.379C124.262 101.307 123.518 100.77 122.616 100.769C121.736 100.769 121.005 101.277 120.421 102.292C119.858 103.271 119.576 104.448 119.576 105.823C119.576 107.198 119.858 108.376 120.421 109.355Z" fill="#221108"/>
<path d="M140.811 99.7031V111.944H137.893V100.928H133.884V107.467C133.884 108.879 133.451 109.981 132.585 110.773C131.718 111.564 130.534 111.955 129.032 111.944V110.876C129.667 110.876 130.194 110.573 130.615 109.967C131.061 109.338 131.283 108.522 131.283 107.519V99.7031H140.811Z" fill="#221108"/>
<path d="M152.448 101.347C153.512 102.584 154.044 104.088 154.044 105.859C154.044 107.606 153.517 109.092 152.462 110.318C151.339 111.6 149.886 112.241 148.103 112.24C146.32 112.238 144.861 111.592 143.726 110.3C142.662 109.076 142.13 107.584 142.13 105.823C142.13 104.063 142.662 102.571 143.726 101.347C144.264 100.718 144.936 100.217 145.693 99.8812C146.45 99.5452 147.274 99.3825 148.103 99.4051C148.927 99.3826 149.746 99.5455 150.499 99.8817C151.251 100.218 151.917 100.719 152.448 101.347ZM145.908 109.355C146.495 110.37 147.226 110.877 148.103 110.876C149.005 110.876 149.75 110.34 150.336 109.268C150.879 108.2 151.162 107.02 151.162 105.823C151.162 104.627 150.879 103.447 150.336 102.379C149.75 101.307 149.005 100.77 148.103 100.769C147.225 100.769 146.493 101.277 145.908 102.292C145.345 103.271 145.064 104.448 145.064 105.823C145.064 107.198 145.345 108.376 145.908 109.355Z" fill="#221108"/>
<path d="M162.836 100.928H158.317V111.944H155.399V99.7031H162.606L162.836 100.928Z" fill="#221108"/>
<path d="M173.735 99.7031V111.944H170.817V103.936L165.895 111.944H163.732V99.7031H166.644V107.712L171.567 99.7031H173.735Z" fill="#221108"/>
<path d="M185.493 99.7031V111.944H182.576V103.936L177.654 111.944H175.493V99.7031H178.418V107.712L183.34 99.7031H185.493Z" fill="#221108"/>
<path d="M79.031 73.2005C79.518 72.46 79.9989 71.7057 80.4719 70.9453L78.0132 71.4118C78.3392 72.022 78.6784 72.6182 79.031 73.2005Z" fill="url(#paint0_linear)"/>
<path d="M55.5352 78.9517L55.0742 78.9041C55.7108 80.1546 56.417 81.3688 57.1897 82.541C57.8882 81.4511 58.5867 80.2897 59.2493 79.1046L55.2578 79.2098C55.3456 79.1264 55.4414 79.0371 55.5352 78.9517Z" fill="url(#paint1_linear)"/>
<path d="M107.508 73.9627C108.007 73.1686 108.494 72.3289 108.963 71.4693L106.007 71.3918C106.496 72.2614 106.999 73.123 107.508 73.9627Z" fill="url(#paint2_linear)"/>
<path d="M131.748 79.2098L127.757 79.1046C128.421 80.2957 129.118 81.4511 129.818 82.541C130.585 81.368 131.286 80.1538 131.918 78.9041L131.457 78.9517C131.557 79.0371 131.652 79.1264 131.748 79.2098Z" fill="url(#paint3_linear)"/>
<path d="M185.537 90.6169L184.076 90.468L181.154 90.1702C179.207 89.9896 177.259 89.8129 175.311 89.6561C172.118 89.3881 168.925 89.1558 165.731 88.9354H165.704L165.075 85.5784C165.03 85.3493 164.913 85.1405 164.74 84.9829L159.17 79.051C159.189 78.7116 159.205 78.3721 159.221 78.0306C160.85 75.4201 165.741 77.4728 167.404 78.2689C167.448 78.2897 167.497 78.2969 167.546 78.2897C167.594 78.2825 167.639 78.2611 167.675 78.2282C167.711 78.1954 167.736 78.1526 167.748 78.1054C167.759 78.0582 167.756 78.0087 167.739 77.9631L165.801 72.8294C165.717 72.6125 165.565 72.4281 165.368 72.3033L158.84 67.4216C158.802 67.0841 158.76 66.7486 158.717 66.4131C159.864 63.5604 165.039 64.7356 166.809 65.222C166.856 65.2353 166.906 65.2342 166.952 65.2189C166.999 65.2036 167.039 65.1749 167.069 65.1364C167.099 65.0979 167.116 65.0514 167.119 65.0029C167.122 64.9545 167.11 64.9063 167.085 64.8647L164.291 60.1458C164.171 59.9461 163.99 59.7901 163.774 59.7011L156.507 56.0285C156.405 55.693 156.308 55.3575 156.198 55.022C156.854 52.0441 162.131 52.3062 163.957 52.4888C164.005 52.4913 164.052 52.4799 164.092 52.4562C164.133 52.4325 164.167 52.3974 164.188 52.3553C164.209 52.3131 164.217 52.2658 164.212 52.219C164.206 52.1722 164.187 52.128 164.157 52.0918L160.565 47.9228C160.411 47.7477 160.206 47.626 159.978 47.5754L152.182 45.215C152.023 44.9013 151.863 44.5877 151.7 44.276C151.827 41.2287 157.07 40.5755 158.898 40.4405C158.947 40.4372 158.993 40.4194 159.032 40.3895C159.07 40.3595 159.098 40.3188 159.113 40.2726C159.128 40.2264 159.129 40.1769 159.115 40.1303C159.101 40.0838 159.074 40.0425 159.036 40.0117L154.777 36.5297C154.596 36.3832 154.372 36.299 154.138 36.2895L146.036 35.3088C145.831 35.0374 145.623 34.7655 145.413 34.4928C144.978 31.4535 150.049 29.899 151.829 29.4504C151.877 29.4382 151.919 29.4123 151.952 29.3759C151.984 29.3395 152.005 29.2943 152.011 29.2461C152.018 29.1979 152.009 29.1489 151.988 29.1054C151.966 29.0618 151.932 29.0258 151.889 29.0017L147.099 26.3098C146.895 26.1972 146.659 26.1527 146.427 26.1827L138.268 26.6175C138.023 26.3852 137.775 26.1569 137.526 25.9286C136.542 23.0282 141.272 20.6082 142.948 19.8519C142.993 19.8321 143.031 19.7994 143.057 19.758C143.082 19.7166 143.095 19.6684 143.093 19.6198C143.091 19.5711 143.074 19.5242 143.044 19.4852C143.015 19.4462 142.975 19.417 142.928 19.4012L137.739 17.5788C137.517 17.5043 137.277 17.5043 137.055 17.5788L129.102 19.4131C128.816 19.2265 128.529 19.0399 128.24 18.8573C126.787 16.1494 131.016 12.9632 132.535 11.9348C132.575 11.9077 132.607 11.869 132.625 11.8238C132.643 11.7785 132.648 11.7288 132.637 11.6812C132.626 11.6336 132.602 11.5902 132.566 11.5569C132.53 11.5235 132.485 11.5016 132.437 11.4941L127 10.5968C126.769 10.5606 126.533 10.5996 126.326 10.7079L118.828 13.8843C118.505 13.7427 118.179 13.605 117.852 13.4714C115.982 11.0554 119.574 7.20404 120.889 5.92755C120.925 5.89379 120.949 5.8502 120.959 5.80248C120.969 5.75477 120.965 5.70514 120.946 5.6601C120.927 5.61506 120.895 5.57669 120.854 5.55003C120.813 5.52337 120.765 5.50964 120.716 5.51065L115.206 5.56624C114.97 5.56909 114.741 5.64856 114.555 5.79255L107.724 10.2136C107.38 10.1316 107.036 10.0535 106.69 9.97938C104.425 7.92269 107.288 3.50757 108.364 2.02858C108.392 1.98904 108.408 1.9421 108.409 1.89373C108.41 1.84536 108.397 1.79773 108.371 1.75689C108.345 1.71605 108.307 1.68384 108.262 1.66435C108.218 1.64486 108.169 1.63897 108.121 1.64742L102.702 2.65591C102.472 2.69909 102.262 2.81542 102.104 2.98744L96.1443 8.53612C95.8011 8.51627 95.4598 8.50039 95.1165 8.48649C92.4941 6.86457 94.5577 1.9988 95.356 0.347102C95.3771 0.303497 95.3846 0.254616 95.3774 0.206758C95.3703 0.1589 95.349 0.114258 95.3161 0.0785868C95.2832 0.0429153 95.2404 0.0178486 95.1931 0.00661719C95.1458 -0.00461422 95.0962 -0.00149559 95.0507 0.0155712L89.8897 1.94322C89.6703 2.02949 89.4843 2.1832 89.3589 2.38195L84.4534 8.86765C84.1141 8.90537 83.7748 8.94706 83.4375 8.99272C80.5716 7.84924 81.7531 2.70157 82.2521 0.940682C82.2654 0.894 82.2643 0.844414 82.2489 0.798353C82.2336 0.752292 82.2047 0.71188 82.166 0.682355C82.1273 0.652831 82.0805 0.635555 82.0318 0.632767C81.9831 0.62998 81.9347 0.641809 81.8928 0.666722L77.147 3.45595C76.9472 3.57619 76.7907 3.75615 76.6999 3.97012L73.0098 11.1983C72.6705 11.2995 72.3333 11.3968 71.998 11.508C69.0044 10.8529 69.2658 5.60396 69.4514 3.78947C69.4569 3.74125 69.4477 3.69252 69.4252 3.64949C69.4027 3.60646 69.3678 3.57108 69.325 3.54786C69.2821 3.52464 69.2333 3.51464 69.1848 3.51913C69.1362 3.52362 69.0901 3.54241 69.0523 3.57308L64.8613 7.14647C64.6823 7.30178 64.559 7.51084 64.51 7.74204L62.1411 15.4844C61.8238 15.6432 61.5084 15.802 61.1971 15.9648C58.1337 15.8378 57.4771 10.6226 57.3413 8.80611C57.338 8.75773 57.3201 8.71146 57.29 8.67331C57.2599 8.63515 57.219 8.60687 57.1725 8.59211C57.1261 8.57735 57.0763 8.5768 57.0295 8.59054C56.9827 8.60427 56.9412 8.63165 56.9103 8.66913L53.4098 12.9036C53.262 13.0838 53.1766 13.3066 53.1663 13.5389L52.1824 21.5989C51.907 21.804 51.6335 22.0105 51.3621 22.2182C48.3067 22.651 46.742 17.6066 46.301 15.8358C46.2892 15.7886 46.2634 15.746 46.227 15.7136C46.1906 15.6812 46.1453 15.6604 46.0968 15.654C46.0484 15.6476 45.9991 15.6558 45.9554 15.6776C45.9118 15.6994 45.8757 15.7337 45.8519 15.7762L43.1437 20.5407C43.0314 20.7448 42.9867 20.9789 43.016 21.2097L43.453 29.3273C43.2215 29.5695 42.99 29.8157 42.7625 30.0638C39.8248 31.0306 37.402 26.3276 36.6456 24.6581C36.6255 24.6142 36.5926 24.5773 36.5512 24.5521C36.5098 24.5269 36.4618 24.5146 36.4134 24.5167C36.3649 24.5188 36.3182 24.5353 36.2792 24.564C36.2402 24.5928 36.2108 24.6324 36.1946 24.6779L34.3605 29.8395C34.2867 30.0605 34.2867 30.2994 34.3605 30.5204L36.2066 38.4315C36.007 38.7154 35.8314 39.0032 35.6458 39.2891C32.9236 40.7363 29.7224 36.5277 28.6886 35.0169C28.6614 34.9764 28.6225 34.9449 28.577 34.9267C28.5315 34.9086 28.4816 34.9044 28.4337 34.915C28.3858 34.9255 28.3422 34.9501 28.3087 34.9857C28.2751 35.0212 28.2531 35.066 28.2456 35.1142L27.3435 40.5219C27.3062 40.7522 27.3447 40.9882 27.4533 41.1949L30.6464 48.6514C30.5067 48.973 30.367 49.2966 30.2333 49.6222C27.8025 51.4843 23.9308 47.9089 22.6496 46.6007C22.6152 46.5665 22.5715 46.5432 22.5238 46.5338C22.4762 46.5244 22.4268 46.5292 22.382 46.5477C22.3371 46.5662 22.2988 46.5975 22.2718 46.6377C22.2448 46.6778 22.2304 46.7251 22.2304 46.7734L22.2863 52.2546C22.2902 52.4878 22.37 52.7135 22.5138 52.8978L26.9424 59.7071C26.8599 60.0485 26.7807 60.3913 26.7049 60.7354C24.6373 62.9906 20.2008 60.1399 18.722 59.0698C18.6824 59.0416 18.6352 59.0257 18.5865 59.0244C18.5379 59.0231 18.4899 59.0363 18.4489 59.0624C18.4078 59.0885 18.3756 59.1262 18.3563 59.1707C18.337 59.2152 18.3316 59.2644 18.3408 59.312L19.3526 64.7019C19.3956 64.9312 19.5126 65.1403 19.6859 65.2975L25.26 71.2293C25.24 71.5687 25.224 71.9082 25.2101 72.2497C23.5816 74.8583 18.69 72.8055 17.0276 72.0115C16.9836 71.9902 16.9341 71.9826 16.8857 71.9897C16.8372 71.9968 16.7921 72.0182 16.7561 72.0512C16.7201 72.0843 16.695 72.1273 16.684 72.1747C16.6729 72.2222 16.6765 72.2718 16.6943 72.3172L18.6301 77.449C18.7157 77.6662 18.8679 77.851 19.0652 77.977L25.5933 82.8567C25.6312 83.1962 25.6731 83.5317 25.717 83.8672C24.5694 86.7199 19.3945 85.5447 17.6243 85.0464C17.5774 85.0337 17.5278 85.0351 17.4817 85.0504C17.4356 85.0658 17.3951 85.0944 17.3654 85.1327C17.3357 85.171 17.318 85.2172 17.3148 85.2654C17.3115 85.3137 17.3226 85.3618 17.3469 85.4037L19.5242 89.0684C16.9138 89.2498 14.3027 89.4483 11.691 89.664C9.74316 89.8208 7.79533 89.9975 5.84749 90.1782L2.92574 90.474L1.46487 90.6229L0 90.7857H36.2265C36.4939 90.4343 36.7654 90.0591 37.0368 89.666H37.1366C37.4718 89.1776 37.8111 88.6615 38.1464 88.1255C38.6014 87.3989 39.0525 86.6385 39.4855 85.8663L36.3343 85.9477C38.2681 84.286 39.8987 81.604 41.2118 78.6719L38.9726 79.055C40.2918 77.9155 41.3855 76.2995 42.2915 74.4453L38.9168 75.029C40.7668 73.415 42.1678 70.86 43.2255 68.0073L41.629 68.047C42.7066 67.0782 43.5947 65.6012 44.3232 63.9415L41.5511 64.013C45.7282 60.2133 47.0573 48.6732 47.0573 48.6732C47.0573 48.6732 48.1051 60.3642 52.0127 63.745L49.6618 63.8046C50.3303 65.4583 51.1606 66.9015 52.1884 67.775L50.9051 67.8068C52.2462 70.8263 53.9266 73.6135 55.6949 75.0885L52.5336 74.757C53.2154 76.0007 54.0347 77.1646 54.9764 78.2272C56.9901 76.1189 58.7184 73.1609 60.1493 69.9647L57.3054 70.4531C58.9818 69.0058 60.3709 66.9531 61.5204 64.6006L57.2396 65.3411C59.5865 63.2944 61.3647 60.0426 62.7079 56.4295L60.6702 56.4791C62.0393 55.2483 63.1669 53.3742 64.0909 51.2699L60.5724 51.3573C65.8771 46.5372 67.5575 31.8882 67.5575 31.8882C67.5575 31.8882 68.8847 46.7277 73.846 51.0198L70.8644 51.0952C71.7126 53.1916 72.7663 55.0259 74.0716 56.1416L72.445 56.1813C74.1474 60.0168 76.2788 63.5564 78.534 65.4265L74.5206 65.0076C75.2405 66.3017 76.069 67.5329 76.9973 68.6882C78.8374 66.3695 80.6016 63.4711 82.1742 60.4079L78.8314 60.7612C80.7094 59.2187 82.5195 56.761 84.148 53.8904L79.1587 54.4125C81.9527 52.0878 84.607 47.6945 86.7225 42.93L84.7008 42.8804C86.3214 41.4907 87.6306 39.2157 88.6923 36.6091L84.9802 36.5277C91.141 31.1954 92.7895 12.7626 92.7895 12.7626C92.7895 12.7626 94.885 30.9572 101.471 36.9466L97.1023 36.8354C98.2478 39.4519 99.6508 41.7786 101.349 43.3072L98.8186 43.2437C100.487 47.7322 102.696 51.7801 105.604 54.3132L100.287 53.3941C101.714 56.3183 103.439 58.8634 105.522 60.664L101.99 60.0565C103.475 63.3738 105.219 66.4846 107.211 68.9463C108.224 67.7239 109.12 66.4107 109.889 65.0235L105.876 65.4424C108.131 63.5723 110.266 60.0326 111.965 56.1972L110.336 56.1575C111.639 55.0418 112.695 53.2075 113.543 51.1111L110.563 51.0198C115.525 46.7277 116.852 31.8882 116.852 31.8882C116.852 31.8882 118.538 46.5372 123.837 51.3573L120.319 51.2699C121.243 53.3742 122.372 55.2403 123.739 56.4791L121.702 56.4295C123.045 60.0426 124.825 63.2944 127.172 65.3411L122.889 64.6006C124.039 66.9531 125.428 69.0058 127.104 70.4531L124.262 69.9647C125.693 73.1609 127.419 76.1189 129.435 78.2272C130.376 77.1641 131.195 76.0002 131.878 74.757L128.725 75.0965C130.501 73.6215 132.179 70.8342 133.514 67.8147L132.229 67.7829C133.257 66.9015 134.089 65.4583 134.756 63.8125L132.407 63.753C136.314 60.3781 137.362 48.6812 137.362 48.6812C137.362 48.6812 138.689 60.2212 142.868 64.021L140.1 63.9415C140.827 65.6012 141.717 67.0782 142.795 68.047L141.198 68.0073C142.254 70.8541 143.657 73.415 145.507 75.029L142.128 74.4453C143.034 76.2995 144.124 77.9155 145.449 79.055L143.208 78.6719C144.523 81.604 146.151 84.286 148.087 85.9477L144.936 85.8663C145.335 86.5909 145.764 87.3056 146.191 87.9905C146.555 88.5741 146.92 89.1359 147.285 89.666H147.383C147.656 90.063 147.928 90.4343 148.195 90.7857H187L185.537 90.6169Z" fill="url(#paint4_linear)"/>
<defs>
<linearGradient id="paint0_linear" x1="78.0052" y1="72.0729" x2="80.4639" y2="72.0729" gradientUnits="userSpaceOnUse">
<stop stop-color="#52B25D"/>
<stop offset="1" stop-color="#95C239"/>
</linearGradient>
<linearGradient id="paint1_linear" x1="1207.23" y1="1557.74" x2="1294.57" y2="1557.74" gradientUnits="userSpaceOnUse">
<stop stop-color="#52B25D"/>
<stop offset="1" stop-color="#95C239"/>
</linearGradient>
<linearGradient id="paint2_linear" x1="1675.98" y1="1012.56" x2="1719.76" y2="1012.56" gradientUnits="userSpaceOnUse">
<stop stop-color="#52B25D"/>
<stop offset="1" stop-color="#95C239"/>
</linearGradient>
<linearGradient id="paint3_linear" x1="2791.31" y1="1557.74" x2="2878.36" y2="1557.74" gradientUnits="userSpaceOnUse">
<stop stop-color="#52B25D"/>
<stop offset="1" stop-color="#95C239"/>
</linearGradient>
<linearGradient id="paint4_linear" x1="0" y1="20758.1" x2="175217" y2="20758.1" gradientUnits="userSpaceOnUse">
<stop stop-color="#52B25D"/>
<stop offset="1" stop-color="#95C239"/>
</linearGradient>
</defs>
</svg>
