<svg width="142" height="100" viewBox="0 0 142 100" fill="none" xmlns="http://www.w3.org/2000/svg">
<path d="M38.7022 94.5293H36.826V99.109H35.6136V94.0171H38.5961L38.7022 94.5293Z" fill="#221108"/>
<path d="M39.2402 98.2982C39.3415 98.2058 39.4744 98.1558 39.6115 98.1588C39.6813 98.1578 39.7506 98.1706 39.8154 98.1966C39.8802 98.2227 39.9392 98.2613 39.9889 98.3104C40.0437 98.3597 40.0871 98.4204 40.1161 98.4881C40.1452 98.5559 40.1591 98.6291 40.1571 98.7028C40.1598 98.778 40.1461 98.8528 40.117 98.9221C40.088 98.9914 40.0443 99.0536 39.9889 99.1044C39.8844 99.1953 39.75 99.2444 39.6115 99.2423C39.4747 99.2451 39.342 99.1958 39.2402 99.1044C39.185 99.0536 39.1415 98.9913 39.1127 98.922C39.0839 98.8526 39.0706 98.7779 39.0735 98.7028C39.0706 98.6274 39.084 98.5522 39.1128 98.4824C39.1415 98.4126 39.185 98.3498 39.2402 98.2982Z" fill="#221108"/>
<path d="M46.9798 96.9221C47.101 97.2461 47.101 97.6029 46.9798 97.9269C46.8451 98.2907 46.5914 98.5983 46.2599 98.7998C45.8397 99.0615 45.3514 99.1928 44.8566 99.1771C44.5948 99.1897 44.3332 99.1499 44.0871 99.0601C43.8409 98.9704 43.6151 98.8324 43.4229 98.6543L43.8957 98.1815C43.9842 98.3312 44.1094 98.4558 44.2595 98.5436C44.4096 98.6314 44.5797 98.6794 44.7535 98.6831C44.9115 98.6864 45.068 98.6519 45.2099 98.5822C45.3517 98.5126 45.4748 98.41 45.5688 98.283C45.7605 98.0331 45.8606 97.7249 45.8522 97.4101C45.8522 96.7605 45.4961 96.4357 44.7838 96.4357V95.9265C45.3789 95.9265 45.6769 95.6936 45.678 95.2278C45.6826 95.0327 45.6182 94.8422 45.4961 94.6899C45.4266 94.6082 45.3395 94.5434 45.2413 94.5004C45.1431 94.4573 45.0364 94.4371 44.9293 94.4413C44.784 94.445 44.6419 94.4849 44.5159 94.5574C44.39 94.6299 44.2841 94.7328 44.2079 94.8566L43.7972 94.4353C43.9604 94.2717 44.1559 94.1439 44.3711 94.0599C44.5863 93.9759 44.8167 93.9375 45.0475 93.9473C45.4089 93.9357 45.7664 94.0238 46.0811 94.2019C46.3264 94.3343 46.5209 94.5443 46.6342 94.799C46.7352 95.0253 46.7555 95.2793 46.6918 95.5188C46.6285 95.7722 46.4797 95.9959 46.2705 96.1523C46.4339 96.2271 46.5808 96.3337 46.7026 96.4658C46.8244 96.598 46.9186 96.7531 46.9798 96.9221Z" fill="#221108"/>
<path d="M49.6712 98.2178H48.1557L47.9587 99.1119H47.254L48.4967 94.02H49.9667L51.2109 99.1119H49.8652L49.6712 98.2178ZM49.5621 97.7086L48.915 94.799L48.2679 97.7086H49.5621Z" fill="#221108"/>
<path d="M55.7164 94.0201V99.109H54.504V94.5293H52.784V99.109H51.5716V94.0171L55.7164 94.0201Z" fill="#221108"/>
<path d="M58.4974 98.2178H56.9819L56.7849 99.1119H56.0802L57.3244 94.02H58.8005L60.0447 99.1119H58.6989L58.4974 98.2178ZM58.3883 97.7086L57.7396 94.799L57.0925 97.7086H58.3883Z" fill="#221108"/>
<path d="M65.7322 98.6026V99.1088L65.317 99.9999H64.9093V99.1088H61.0403V99.9968H60.6342L60.2189 99.1088V98.5996C60.3514 98.5979 60.4812 98.5621 60.5958 98.4957C60.7104 98.4294 60.8061 98.3347 60.8736 98.2208C61.0697 97.919 61.1661 97.5634 61.1494 97.2039V94.0215H65.0897V98.6042L65.7322 98.6026ZM63.8849 98.6026V94.5943H62.2269V97.1842C62.2269 97.8015 62.0355 98.2743 61.6526 98.6026H63.8849Z" fill="#221108"/>
<path d="M70.4181 94.0201V99.109H69.2057V96.3115H67.4856V99.109H66.2733V94.0171H67.4856V95.7992H69.2102V94.0201H70.4181Z" fill="#221108"/>
<path d="M73.1975 98.2178H71.682L71.485 99.1119H70.7803L72.023 94.02H73.5006L74.7448 99.1119H73.399L73.1975 98.2178ZM73.0884 97.7086L72.4397 94.799L71.7926 97.7086H73.0884Z" fill="#221108"/>
<path d="M78.9138 94.0201V99.109H77.7015V96.5009H77.4332L75.9966 99.109H74.7387L76.2072 96.4175C75.8386 96.3888 75.4952 96.2195 75.2479 95.9447C75.1496 95.835 75.0754 95.7059 75.0303 95.5657C74.9851 95.4255 74.9699 95.2774 74.9857 95.1309C74.9969 94.9812 75.0388 94.8354 75.109 94.7026C75.1791 94.5699 75.276 94.4531 75.3934 94.3595C75.6998 94.1209 76.0814 93.9994 76.4694 94.0171L78.9138 94.0201ZM76.8922 94.5293C76.7843 94.5237 76.6763 94.5402 76.575 94.5777C76.4736 94.6152 76.381 94.673 76.3027 94.7475C76.2385 94.8101 76.1874 94.8847 76.1522 94.9672C76.1171 95.0497 76.0987 95.1383 76.0981 95.2279C76.0966 95.3172 76.1133 95.4058 76.1472 95.4884C76.1811 95.5709 76.2314 95.6458 76.2951 95.7083C76.3746 95.7832 76.4686 95.8412 76.5712 95.8787C76.6739 95.9163 76.7831 95.9325 76.8922 95.9265H77.6984V94.5293H76.8922Z" fill="#221108"/>
<path d="M87.8824 98.6026V99.1088L87.4611 99.9968H87.0534V99.1088H83.1905V99.9968H82.7828L82.3691 99.1088V98.5996C82.5016 98.5978 82.6313 98.5621 82.746 98.4957C82.8606 98.4294 82.9563 98.3347 83.0238 98.2207C83.2192 97.9187 83.3156 97.5633 83.2996 97.2039V94.0215H87.2398V98.6041L87.8824 98.6026ZM86.035 98.6026V94.5943H84.3771V97.1842C84.3771 97.8015 84.1851 98.2743 83.8012 98.6026H86.035Z" fill="#221108"/>
<path d="M90.9664 94.02C91.0149 94.02 91.0634 94.0276 91.118 94.0276C91.3059 94.0283 91.4916 94.0681 91.6633 94.1446C91.835 94.221 91.9889 94.3324 92.1151 94.4716C92.303 94.7007 92.4035 94.9891 92.3985 95.2854C92.4037 95.4716 92.3625 95.6562 92.2786 95.8226C92.1948 95.989 92.0709 96.1319 91.9181 96.2386C92.155 96.3737 92.3515 96.5698 92.4871 96.8064C92.6227 97.043 92.6926 97.3116 92.6895 97.5843C92.6941 97.935 92.5731 98.2757 92.3485 98.5451C92.0209 98.8789 91.5791 99.0765 91.1119 99.0982C91.0392 99.0982 90.9603 99.0982 90.8861 99.0982C90.8118 99.0982 90.7694 99.0982 90.7345 99.0982H88.428V94.0063L90.9664 94.02ZM89.6358 94.5292V95.9264H90.5375C90.6265 95.9291 90.715 95.9122 90.7968 95.8768C90.8785 95.8415 90.9514 95.7886 91.0104 95.7218C91.1308 95.5888 91.1959 95.4148 91.1922 95.2354C91.197 95.0544 91.135 94.878 91.0179 94.7398C90.9629 94.6727 90.8934 94.6189 90.8147 94.5825C90.736 94.546 90.6501 94.5278 90.5633 94.5292H89.6358ZM90.5663 98.6027C90.6928 98.6041 90.8179 98.576 90.9316 98.5205C91.0453 98.4649 91.1444 98.3836 91.221 98.2829C91.3932 98.0679 91.487 97.8006 91.487 97.5252C91.487 97.2497 91.3932 96.9825 91.221 96.7675C91.1385 96.6613 91.0324 96.5757 90.9112 96.5176C90.7899 96.4595 90.6568 96.4304 90.5224 96.4326H89.6419V98.5996L90.5663 98.6027Z" fill="#221108"/>
<path d="M97.5496 94.0201V99.109H96.3373V95.775L94.3005 99.109H93.4048V94.0171H94.6172V97.3511L96.654 94.0171L97.5496 94.0201Z" fill="#221108"/>
<path d="M102.417 94.0201V99.109H101.205V96.3115H99.4849V99.109H98.2725V94.0171H99.4849V95.7992H101.21V94.0201H102.417Z" fill="#221108"/>
<path d="M105.195 98.2178H103.68L103.483 99.1119H102.778L104.021 94.02H105.491L106.735 99.1119H105.389L105.195 98.2178ZM105.086 97.7086L104.439 94.799L103.792 97.7086H105.086Z" fill="#221108"/>
<path d="M9.4187 76.1091V85.4533H7.20308V77.0441H4.15849V82.036C4.15849 83.114 3.82963 83.955 3.17191 84.5592C2.5142 85.1633 1.61501 85.4614 0.474365 85.4533V84.638C0.955276 84.638 1.35587 84.4066 1.67614 83.9439C2.01358 83.464 2.18281 82.8412 2.18382 82.0754V76.1091H9.4187Z" fill="#221108"/>
<path d="M16.8218 84.5183L16.649 85.4533H10.7599V76.1091H16.3671L16.5399 77.0442H12.9816V79.3794H14.838V80.3175H12.9816V84.5213L16.8218 84.5183Z" fill="#221108"/>
<path d="M22.4866 84.3455C22.5881 84.2609 22.6815 84.1671 22.7655 84.0651C22.8451 83.9833 22.9166 83.894 22.9792 83.7984L23.9278 84.7456C23.3314 85.3386 22.526 85.6738 21.6849 85.6791C20.2604 85.6791 19.1304 85.1739 18.2948 84.1636C17.5391 83.2392 17.1607 82.1138 17.1597 80.7872C17.1587 79.4607 17.5325 78.3353 18.2812 77.4109C19.1177 76.3864 20.2478 75.8747 21.6713 75.8757C22.4735 75.8757 23.212 76.2046 23.8869 76.8623L23.0352 77.7109C22.8795 77.4821 22.6905 77.2778 22.4745 77.1047C22.2488 76.9178 21.9658 76.814 21.6728 76.8108C20.9656 76.8198 20.3963 77.2295 19.9649 78.0398C19.581 78.7773 19.385 79.6759 19.3769 80.7357C19.3688 81.7955 19.5557 82.6896 19.9376 83.418C20.365 84.2364 20.9434 84.6455 21.6728 84.6455C21.97 84.6391 22.2564 84.5335 22.4866 84.3455Z" fill="#221108"/>
<path d="M32.216 76.1091V85.4533H30.0064V80.3175H26.8376V85.4563H24.6219V76.1091H26.8376V79.3794H30.0064V76.1091H32.216Z" fill="#221108"/>
<path d="M40.786 79.4461C41.336 80.1492 41.619 81.0244 41.5849 81.9163C41.5508 82.8083 41.2017 83.6593 40.5996 84.3183C39.8601 85.075 38.8321 85.4533 37.5156 85.4533H33.5511V76.1091H35.7653V79.5264C36.4957 78.798 37.4212 78.4333 38.5416 78.4323C38.9683 78.4183 39.3926 78.5024 39.7817 78.6782C40.1708 78.8539 40.5144 79.1167 40.786 79.4461ZM35.7668 84.4471H36.0214L36.2745 84.4607C36.5063 84.4698 36.6973 84.4698 36.8488 84.4607C37.2335 84.4629 37.6161 84.4041 37.9824 84.2864C38.8462 83.9833 39.2827 83.218 39.2918 81.9905C39.3156 81.3828 39.1769 80.7796 38.8902 80.2432C38.579 79.7007 38.1567 79.4335 37.6232 79.4416C37.1862 79.4636 36.7651 79.6121 36.4108 79.8689C36.1314 80.0647 35.9099 80.3322 35.7698 80.6433L35.7668 84.4471ZM42.641 85.4488V76.1091H44.8581V85.4533L42.641 85.4488Z" fill="#221108"/>
<path d="M52.2384 84.5183L52.0657 85.4533H46.178V76.1091H51.7717L51.9444 77.0442H48.3952V79.3794H50.2501V80.3175H48.3952V84.5213L52.2384 84.5183Z" fill="#221108"/>
<path d="M64.5987 76.1091L64.7729 77.0442H62.286V85.4533H60.0734V77.0442H57.5881L57.7624 76.1091H64.5987Z" fill="#221108"/>
<path d="M71.5002 84.5183L71.3259 85.4533H65.4398V76.1091H71.0334L71.2062 77.0442H67.6554V79.3794H69.5103V80.3175H67.6554V84.5213L71.5002 84.5183Z" fill="#221108"/>
<path d="M76.7725 85.4533L74.9843 82.3967L72.9278 85.4533H71.5926L74.4099 81.2889L71.5138 76.1091H74.0492L75.8375 79.1658L77.8955 76.1091H79.2306L76.427 80.2736L79.3064 85.4533H76.7725Z" fill="#221108"/>
<path d="M87.5839 76.1091V85.4533H85.3683V80.3175H82.2055V85.4563H79.9898V76.1091H82.2055V79.3794H85.3683V76.1091H87.5839Z" fill="#221108"/>
<path d="M96.407 77.3641C97.2152 78.3087 97.6193 79.4569 97.6193 80.8087C97.6193 82.1422 97.2187 83.2768 96.4176 84.2123C95.5628 85.1913 94.4596 85.6803 93.1078 85.6793C91.756 85.6782 90.6482 85.1847 89.7843 84.1987C88.9761 83.2642 88.572 82.1251 88.572 80.7814C88.572 79.4377 88.9761 78.2986 89.7843 77.3641C90.1922 76.8842 90.7025 76.5019 91.2777 76.2454C91.8528 75.9889 92.4782 75.8647 93.1078 75.882C93.7338 75.8645 94.3557 75.9888 94.927 76.2454C95.4983 76.5021 96.0042 76.8845 96.407 77.3641ZM91.4423 83.4773C91.8868 84.2522 92.4425 84.6392 93.1093 84.6382C93.7943 84.6382 94.3591 84.229 94.8036 83.4106C95.216 82.5955 95.4309 81.6949 95.4309 80.7814C95.4309 79.8679 95.216 78.9672 94.8036 78.1521C94.3591 77.3338 93.7943 76.9241 93.1093 76.9231C92.4415 76.9231 91.8858 77.3105 91.4423 78.0854C91.0149 78.833 90.8012 79.7317 90.8012 80.7814C90.8012 81.8311 91.0149 82.7297 91.4423 83.4773Z" fill="#221108"/>
<path d="M106.926 76.1091V85.4533H104.71V77.0441H101.666V82.036C101.666 83.114 101.337 83.955 100.679 84.5592C100.021 85.1633 99.1222 85.4614 97.9816 85.4533V84.638C98.4635 84.638 98.8641 84.4066 99.1833 83.9439C99.5218 83.464 99.691 82.8412 99.691 82.0754V76.1091H106.926Z" fill="#221108"/>
<path d="M115.763 77.364C116.571 78.3087 116.975 79.4569 116.975 80.8086C116.975 82.1422 116.574 83.2768 115.773 84.2123C114.921 85.1912 113.817 85.6802 112.463 85.6792C111.11 85.6782 110.002 85.1847 109.14 84.1986C108.332 83.2641 107.928 82.125 107.928 80.7813C107.928 79.4377 108.332 78.2986 109.14 77.364C109.548 76.8842 110.058 76.5019 110.633 76.2454C111.208 75.9889 111.834 75.8647 112.463 75.882C113.089 75.8647 113.711 75.9891 114.283 76.2457C114.854 76.5023 115.36 76.8846 115.763 77.364ZM110.796 83.4773C111.242 84.2522 111.798 84.6391 112.463 84.6381C113.148 84.6381 113.714 84.2289 114.159 83.4106C114.572 82.5955 114.787 81.6948 114.787 80.7813C114.787 79.8678 114.572 78.9672 114.159 78.1521C113.714 77.3337 113.148 76.9241 112.463 76.9231C111.797 76.9231 111.241 77.3105 110.796 78.0854C110.369 78.833 110.155 79.7317 110.155 80.7813C110.155 81.831 110.369 82.7297 110.796 83.4773Z" fill="#221108"/>
<path d="M123.651 77.0442H120.22V85.4533H118.004V76.1091H123.476L123.651 77.0442Z" fill="#221108"/>
<path d="M131.927 76.1091V85.4533H129.711V79.34L125.974 85.4533H124.331V76.1091H126.542V82.2224L130.281 76.1091H131.927Z" fill="#221108"/>
<path d="M140.856 76.1091V85.4533H138.64V79.34L134.903 85.4533H133.262V76.1091H135.484V82.2224L139.221 76.1091H140.856Z" fill="#221108"/>
<path d="M60.0128 55.8783C60.3826 55.313 60.7478 54.7372 61.107 54.1567L59.2399 54.5129C59.4875 54.9786 59.7451 55.4337 60.0128 55.8783Z" fill="url(#paint0_linear_35:730)"/>
<path d="M42.1711 60.2683L41.821 60.2319C42.3044 61.1865 42.8407 62.1134 43.4275 63.0082C43.9579 62.1762 44.4883 61.2897 44.9914 60.385L41.9605 60.4653C42.0272 60.4017 42.0999 60.3335 42.1711 60.2683Z" fill="url(#paint1_linear_35:730)"/>
<path d="M81.6372 56.46C82.0161 55.8539 82.3859 55.2128 82.742 54.5567L80.4976 54.4976C80.8689 55.1613 81.2508 55.819 81.6372 56.46Z" fill="url(#paint2_linear_35:730)"/>
<path d="M100.044 60.4653L97.0132 60.385C97.5178 61.2943 98.0467 62.1762 98.5786 63.0082C99.1607 62.1128 99.6929 61.186 100.173 60.2319L99.8228 60.2683C99.8986 60.3335 99.9713 60.4017 100.044 60.4653Z" fill="url(#paint3_linear_35:730)"/>
<path d="M140.889 69.1732L139.78 69.0596L137.561 68.8322C136.082 68.6943 134.603 68.5595 133.124 68.4397C130.699 68.2352 128.274 68.0579 125.85 67.8896H125.828L125.351 65.327C125.317 65.1521 125.228 64.9927 125.096 64.8724L120.867 60.3443C120.882 60.0852 120.894 59.826 120.906 59.5654C122.143 57.5726 125.857 59.1395 127.12 59.7472C127.153 59.7631 127.191 59.7687 127.227 59.7631C127.264 59.7576 127.298 59.7413 127.325 59.7162C127.353 59.6912 127.372 59.6585 127.381 59.6225C127.389 59.5864 127.387 59.5486 127.374 59.5138L125.903 55.5949C125.839 55.4294 125.723 55.2886 125.574 55.1933L120.617 51.4669C120.588 51.2093 120.556 50.9532 120.523 50.6971C121.394 48.5194 125.324 49.4165 126.668 49.7878C126.704 49.7979 126.741 49.7971 126.777 49.7854C126.812 49.7738 126.843 49.7518 126.865 49.7224C126.888 49.693 126.901 49.6575 126.903 49.6206C126.905 49.5836 126.896 49.5468 126.877 49.515L124.755 45.9128C124.665 45.7604 124.527 45.6413 124.363 45.5734L118.845 42.7698C118.768 42.5137 118.694 42.2576 118.61 42.0015C119.109 39.7284 123.116 39.9284 124.502 40.0678C124.538 40.0697 124.574 40.061 124.605 40.0429C124.636 40.0248 124.661 39.998 124.677 39.9659C124.693 39.9337 124.7 39.8975 124.696 39.8618C124.691 39.8261 124.677 39.7923 124.654 39.7647L121.926 36.5823C121.81 36.4486 121.653 36.3557 121.48 36.3171L115.561 34.5153C115.44 34.2758 115.319 34.0364 115.194 33.7985C115.291 31.4723 119.272 30.9737 120.661 30.8706C120.698 30.8681 120.733 30.8545 120.762 30.8317C120.791 30.8088 120.813 30.7777 120.824 30.7425C120.835 30.7072 120.836 30.6694 120.825 30.6339C120.815 30.5983 120.794 30.5668 120.765 30.5433L117.531 27.8852C117.393 27.7735 117.223 27.7091 117.046 27.7019L110.893 26.9533C110.738 26.7461 110.58 26.5385 110.421 26.3304C110.09 24.0103 113.941 22.8237 115.293 22.4812C115.329 22.4719 115.361 22.4521 115.386 22.4243C115.41 22.3966 115.426 22.3621 115.431 22.3253C115.436 22.2885 115.43 22.2511 115.413 22.2179C115.397 22.1846 115.371 22.1571 115.338 22.1387L111.701 20.0838C111.546 19.9978 111.367 19.9639 111.19 19.9868L104.995 20.3187C104.809 20.1414 104.621 19.9671 104.431 19.7928C103.684 17.5788 107.276 15.7315 108.549 15.1541C108.583 15.139 108.612 15.1141 108.631 15.0825C108.651 15.0508 108.66 15.0141 108.659 14.9769C108.657 14.9398 108.644 14.904 108.622 14.8742C108.6 14.8445 108.569 14.8221 108.534 14.8101L104.594 13.4189C104.425 13.3621 104.242 13.3621 104.074 13.4189L98.0346 14.8192C97.8178 14.6767 97.5996 14.5343 97.3799 14.3949C96.2766 12.3278 99.4879 9.89554 100.641 9.11055C100.672 9.08987 100.696 9.06032 100.71 9.02578C100.724 8.99124 100.727 8.95331 100.719 8.91695C100.711 8.8806 100.692 8.84751 100.665 8.82203C100.638 8.79654 100.604 8.77985 100.567 8.77412L96.4388 8.08914C96.2633 8.06153 96.0837 8.09129 95.9265 8.17401L90.2329 10.5987C89.9874 10.4906 89.7404 10.3855 89.4918 10.2835C88.0718 8.43921 90.7997 5.49927 91.7984 4.52485C91.8252 4.49908 91.8437 4.4658 91.8513 4.42938C91.859 4.39295 91.8554 4.35507 91.8412 4.32069C91.8269 4.2863 91.8026 4.25702 91.7715 4.23666C91.7403 4.21631 91.7037 4.20583 91.6665 4.2066L87.4823 4.24904C87.3032 4.25121 87.1297 4.31188 86.9883 4.4218L81.8008 7.79667C81.5401 7.73403 81.2785 7.67442 81.0158 7.61784C79.2957 6.04786 81.4704 2.67753 82.2873 1.54854C82.3085 1.51835 82.3204 1.48252 82.3213 1.4456C82.3222 1.40867 82.3121 1.37231 82.2923 1.34114C82.2724 1.30996 82.2438 1.28538 82.21 1.2705C82.1762 1.25562 82.1387 1.25112 82.1024 1.25757L77.9879 2.02741C77.8129 2.06038 77.6534 2.14918 77.5332 2.28049L73.008 6.51612C72.7473 6.50097 72.4882 6.48885 72.2275 6.47824C70.2362 5.24013 71.8032 1.5258 72.4094 0.264964C72.4254 0.231677 72.4311 0.194363 72.4256 0.15783C72.4202 0.121298 72.404 0.0872201 72.3791 0.05999C72.3541 0.0327598 72.3216 0.0136249 72.2857 0.00505129C72.2497 -0.00352231 72.2121 -0.00114167 72.1775 0.0118864L68.2585 1.48337C68.0919 1.54923 67.9507 1.66656 67.8554 1.81828L64.1304 6.7692C63.8727 6.79799 63.6151 6.82982 63.359 6.86467C61.1828 5.99178 62.0799 2.06227 62.4588 0.718078C62.4689 0.682442 62.4681 0.644591 62.4564 0.60943C62.4448 0.574269 62.4228 0.54342 62.3934 0.520882C62.364 0.498344 62.3285 0.485156 62.2915 0.483029C62.2546 0.480901 62.2178 0.489931 62.186 0.508948L58.5822 2.63813C58.4305 2.72991 58.3117 2.86729 58.2427 3.03063L55.4406 8.54832C55.183 8.62561 54.9269 8.69986 54.6723 8.78473C52.3991 8.28463 52.5976 4.27783 52.7385 2.89272C52.7427 2.85592 52.7357 2.81872 52.7186 2.78587C52.7015 2.75302 52.675 2.72601 52.6425 2.70829C52.61 2.69057 52.5729 2.68293 52.536 2.68636C52.4991 2.68979 52.4641 2.70413 52.4354 2.72754L49.2529 5.45532C49.117 5.57388 49.0234 5.73347 48.9862 5.90995L47.1873 11.8201C46.9464 11.9414 46.7069 12.0626 46.4705 12.1869C44.1443 12.0899 43.6457 8.10884 43.5426 6.72222C43.5401 6.68529 43.5265 6.64997 43.5036 6.62085C43.4808 6.59172 43.4497 6.57013 43.4144 6.55886C43.3792 6.5476 43.3413 6.54718 43.3058 6.55766C43.2703 6.56814 43.2388 6.58905 43.2153 6.61766L40.5571 9.85008C40.4449 9.9876 40.3801 10.1577 40.3722 10.335L39.6251 16.4877C39.416 16.6443 39.2084 16.8019 39.0023 16.9605C36.6821 17.2909 35.4939 13.4401 35.159 12.0884C35.1501 12.0524 35.1305 12.0199 35.1029 11.9951C35.0752 11.9704 35.0408 11.9545 35.004 11.9496C34.9672 11.9447 34.9298 11.951 34.8966 11.9676C34.8635 11.9843 34.8361 12.0105 34.818 12.0429L32.7615 15.6799C32.6763 15.8357 32.6423 16.0145 32.6645 16.1906L32.9964 22.3873C32.8206 22.5721 32.6448 22.76 32.4721 22.9495C30.2413 23.6875 28.4015 20.0974 27.8272 18.823C27.8118 18.7894 27.7869 18.7613 27.7555 18.742C27.724 18.7228 27.6876 18.7134 27.6508 18.715C27.614 18.7167 27.5785 18.7293 27.5489 18.7512C27.5193 18.7731 27.4969 18.8034 27.4847 18.8381L26.0919 22.7782C26.0359 22.947 26.0359 23.1293 26.0919 23.298L27.4937 29.337C27.3422 29.5537 27.2088 29.7735 27.0679 29.9917C25.0008 31.0964 22.57 27.8837 21.785 26.7305C21.7643 26.6995 21.7347 26.6755 21.7002 26.6616C21.6656 26.6477 21.6277 26.6446 21.5914 26.6526C21.555 26.6607 21.5219 26.6795 21.4964 26.7066C21.4709 26.7337 21.4542 26.768 21.4485 26.8047L20.7635 30.9328C20.7352 31.1085 20.7644 31.2887 20.8469 31.4465L23.2716 37.1385C23.1655 37.384 23.0595 37.631 22.9579 37.8795C21.1121 39.301 18.1721 36.5717 17.1991 35.573C17.1731 35.547 17.1398 35.5292 17.1037 35.522C17.0675 35.5148 17.03 35.5185 16.9959 35.5326C16.9619 35.5467 16.9327 35.5706 16.9123 35.6013C16.8918 35.6319 16.8809 35.668 16.8809 35.7049L16.9233 39.889C16.9263 40.067 16.9869 40.2393 17.0961 40.38L20.4589 45.5779C20.3963 45.8386 20.3362 46.1002 20.2786 46.3629C18.7085 48.0844 15.3396 45.9083 14.2167 45.0915C14.1866 45.0699 14.1508 45.0578 14.1138 45.0568C14.0769 45.0558 14.0405 45.0659 14.0093 45.0858C13.9781 45.1057 13.9536 45.1345 13.939 45.1685C13.9244 45.2025 13.9203 45.24 13.9272 45.2764L14.6956 49.3908C14.7282 49.5658 14.8171 49.7254 14.9486 49.8454L19.1814 54.3735C19.1662 54.6326 19.1541 54.8918 19.1435 55.1524C17.9069 57.1437 14.1924 55.5767 12.93 54.9706C12.8966 54.9543 12.859 54.9485 12.8223 54.954C12.7855 54.9594 12.7512 54.9758 12.7239 55.001C12.6966 55.0262 12.6775 55.059 12.6691 55.0952C12.6607 55.1314 12.6635 55.1693 12.6769 55.204L14.147 59.1213C14.2119 59.2871 14.3275 59.4282 14.4773 59.5245L19.4345 63.2494C19.4632 63.5085 19.4951 63.7646 19.5284 64.0207C18.657 66.1984 14.7274 65.3013 13.3832 64.9209C13.3475 64.9112 13.3098 64.9123 13.2748 64.924C13.2398 64.9357 13.2091 64.9576 13.1865 64.9868C13.164 65.016 13.1506 65.0513 13.1481 65.0881C13.1456 65.1249 13.1541 65.1617 13.1725 65.1937L14.8259 67.9912C12.8436 68.1296 10.8609 68.2811 8.87765 68.4458C7.39855 68.5655 5.91945 68.7004 4.44034 68.8383L2.22169 69.0641L1.11236 69.1778L0 69.302H27.5089C27.712 69.0338 27.9181 68.7474 28.1242 68.4473H28.2C28.4546 68.0745 28.7122 67.6805 28.9668 67.2713C29.3123 66.7167 29.6548 66.1363 29.9837 65.5468L27.5907 65.6089C29.0592 64.3405 30.2974 62.2932 31.2946 60.0549L29.5942 60.3473C30.5959 59.4775 31.4264 58.2439 32.1144 56.8285L29.5518 57.274C30.9566 56.042 32.0205 54.0916 32.8237 51.9139L31.6113 51.9443C32.4296 51.2047 33.104 50.0772 33.6572 48.8103L31.5522 48.8649C34.7241 45.9644 35.7334 37.1551 35.7334 37.1551C35.7334 37.1551 36.529 46.0795 39.4963 48.6603L37.7111 48.7058C38.2188 49.9681 38.8492 51.0699 39.6297 51.7366L38.6552 51.7609C39.6736 54.0659 40.9496 56.1935 42.2924 57.3195L39.8918 57.0664C40.4095 58.0158 41.0317 58.9043 41.7468 59.7154C43.2759 58.106 44.5883 55.848 45.6749 53.4082L43.5154 53.781C44.7883 52.6762 45.8431 51.1093 46.716 49.3135L43.4653 49.8787C45.2475 48.3163 46.5978 45.834 47.6177 43.0759L46.0704 43.1138C47.1101 42.1743 47.9663 40.7437 48.668 39.1373L45.9962 39.204C50.0243 35.5245 51.3003 24.3422 51.3003 24.3422C51.3003 24.3422 52.3081 35.67 56.0756 38.9464L53.8115 39.004C54.4556 40.6043 55.2557 42.0045 56.2468 42.8562L55.0117 42.8865C56.3044 45.8143 57.923 48.5163 59.6355 49.9439L56.5878 49.6241C57.1345 50.6119 57.7636 51.5518 58.4685 52.4337C59.8658 50.6637 61.2055 48.4512 62.3997 46.1129L59.8613 46.3826C61.2873 45.2051 62.6619 43.329 63.8985 41.1377L60.1098 41.5363C62.2315 39.7617 64.247 36.408 65.8534 32.771L64.3183 32.7331C65.5488 31.6723 66.543 29.9356 67.3492 27.9459L64.5304 27.8837C69.2087 23.8133 70.4605 9.74248 70.4605 9.74248C70.4605 9.74248 72.0517 23.6314 77.0528 28.2035L73.7354 28.1186C74.6053 30.116 75.6707 31.892 76.9604 33.0589L75.0387 33.0104C76.3057 36.4368 77.9833 39.5268 80.1914 41.4605L76.1541 40.7588C77.2377 42.9911 78.5471 44.9339 80.1292 46.3084L77.4468 45.8446C78.5743 48.3769 79.8989 50.7516 81.4113 52.6307C82.1804 51.6977 82.8613 50.6952 83.4451 49.6363L80.3975 49.956C82.1099 48.5285 83.7315 45.8265 85.0212 42.8986L83.7845 42.8683C84.7741 42.0167 85.5758 40.6164 86.2199 39.0161L83.9573 38.9464C87.7248 35.67 88.7326 24.3422 88.7326 24.3422C88.7326 24.3422 90.0132 35.5245 94.0367 39.204L91.365 39.1373C92.0666 40.7437 92.9244 42.1682 93.9625 43.1138L92.4152 43.0759C93.4351 45.834 94.7869 48.3163 96.5691 49.8787L93.3169 49.3135C94.1898 51.1093 95.2446 52.6762 96.5176 53.781L94.3595 53.4082C95.4461 55.848 96.757 58.106 98.2876 59.7154C99.0022 58.9039 99.6244 58.0154 100.143 57.0664L97.7481 57.3256C99.0969 56.1996 100.371 54.0719 101.385 51.767L100.409 51.7427C101.19 51.0699 101.822 49.9681 102.328 48.7118L100.544 48.6664C103.511 46.0901 104.307 37.1612 104.307 37.1612C104.307 37.1612 105.315 45.9704 108.488 48.871L106.386 48.8103C106.938 50.0772 107.614 51.2047 108.432 51.9443L107.22 51.9139C108.022 54.0871 109.087 56.042 110.492 57.274L107.926 56.8285C108.614 58.2439 109.442 59.4775 110.448 60.3473L108.746 60.0549C109.745 62.2932 110.981 64.3405 112.451 65.6089L110.058 65.5468C110.361 66.0999 110.687 66.6455 111.012 67.1683C111.287 67.6138 111.565 68.0427 111.842 68.4473H111.916C112.124 68.7504 112.33 69.0338 112.533 69.302H142L140.889 69.1732Z" fill="url(#paint4_linear_35:730)"/>
<defs>
<linearGradient id="paint0_linear_35:730" x1="59.2339" y1="55.0175" x2="61.1009" y2="55.0175" gradientUnits="userSpaceOnUse">
<stop stop-color="#52B25D"/>
<stop offset="1" stop-color="#95C239"/>
</linearGradient>
<linearGradient id="paint1_linear_35:730" x1="916.72" y1="1189.12" x2="983.044" y2="1189.12" gradientUnits="userSpaceOnUse">
<stop stop-color="#52B25D"/>
<stop offset="1" stop-color="#95C239"/>
</linearGradient>
<linearGradient id="paint2_linear_35:730" x1="1272.67" y1="772.946" x2="1305.91" y2="772.946" gradientUnits="userSpaceOnUse">
<stop stop-color="#52B25D"/>
<stop offset="1" stop-color="#95C239"/>
</linearGradient>
<linearGradient id="paint3_linear_35:730" x1="2119.6" y1="1189.12" x2="2185.7" y2="1189.12" gradientUnits="userSpaceOnUse">
<stop stop-color="#52B25D"/>
<stop offset="1" stop-color="#95C239"/>
</linearGradient>
<linearGradient id="paint4_linear_35:730" x1="0" y1="15845.9" x2="133053" y2="15845.9" gradientUnits="userSpaceOnUse">
<stop stop-color="#52B25D"/>
<stop offset="1" stop-color="#95C239"/>
</linearGradient>
</defs>
</svg>
