<svg width="28" height="30" viewBox="0 0 28 30" fill="none" xmlns="http://www.w3.org/2000/svg">
<path d="M27.7527 6.61942L14.1903 0.0436816C14.07 -0.0145605 13.93 -0.0145605 13.8098 0.0436816L0.247308 6.61942C0.0960878 6.69273 0 6.84653 0 7.01517V22.9848C0 23.1535 0.0960878 23.3073 0.247308 23.3806L13.8098 29.9563C13.8698 29.9854 13.935 30 14 30C14.0651 30 14.1301 29.9854 14.1903 29.9563L27.7527 23.3806C27.9039 23.3073 28 23.1535 28 22.9848V7.01523C28 6.84648 27.9039 6.69278 27.7527 6.61942ZM14 0.927451L26.556 7.01517L22.9163 8.77989C22.8932 8.76226 22.8689 8.74597 22.8422 8.73302L10.3715 2.68673L14 0.927451ZM9.38329 3.1836L21.921 9.26247L19.3531 10.5075L6.8206 4.43112L9.38329 3.1836ZM22.2144 10.0961V14.6984L19.8158 15.8614V11.2591L22.2144 10.0961ZM27.1249 22.7091L14.4376 28.8604V13.8667L17.4639 12.3994C17.6815 12.2939 17.7727 12.0312 17.6677 11.8126C17.5626 11.5941 17.3011 11.5023 17.0834 11.6079L14 13.1029L12.7867 12.5147C12.5691 12.409 12.3075 12.5008 12.2025 12.7193C12.0974 12.9379 12.1886 13.2006 12.4062 13.3061L13.5624 13.8667V28.8604L0.875117 22.709V7.7153L10.5364 12.3996C10.5977 12.4293 10.6625 12.4434 10.7263 12.4434C10.889 12.4434 11.0452 12.3519 11.1206 12.1949C11.2257 11.9764 11.1345 11.7136 10.9168 11.6081L1.444 7.01517L5.79071 4.90767L18.9346 11.2805C18.9365 11.2832 18.9387 11.2856 18.9407 11.2882V16.5616C18.9407 16.7128 19.0181 16.8534 19.1456 16.9339C19.2165 16.9785 19.2973 17.0011 19.3783 17.0011C19.4432 17.0011 19.5082 16.9866 19.5685 16.9574L22.8422 15.3701C22.9934 15.2968 23.0895 15.1431 23.0895 14.9744V9.67193L27.1249 7.71536V22.7091Z" fill="#666666"/>
</svg>
