<svg width="49" height="48" viewBox="0 0 49 48" fill="none" xmlns="http://www.w3.org/2000/svg">
<g clip-path="url(#clip0)">
<path d="M48.3281 45.4219L35.0625 32.0625C38.0938 28.4375 39.6094 24.2656 39.6094 19.5469C39.6094 16.8906 39.0938 14.3594 38.0625 11.9531C37.0312 9.54688 35.6484 7.46875 33.9141 5.71875C32.1797 3.96875 30.1094 2.57812 27.7031 1.54688C25.2969 0.515625 22.7656 0 20.1094 0C16.5781 0 13.3125 0.867188 10.3125 2.60156C7.3125 4.33594 4.94531 6.70312 3.21094 9.70312C1.47656 12.7031 0.609375 15.9766 0.609375 19.5234C0.609375 23.0703 1.47656 26.3438 3.21094 29.3438C4.94531 32.3438 7.3125 34.7109 10.3125 36.4453C13.3125 38.1797 16.5781 39.0469 20.1094 39.0469C24.9844 39.0469 29.2656 37.4375 32.9531 34.2188L46.1719 47.5312C46.2969 47.6562 46.4297 47.7578 46.5703 47.8359C46.7109 47.9141 46.8594 47.9609 47.0156 47.9766C47.1719 47.9922 47.3281 47.9922 47.4844 47.9766C47.6406 47.9609 47.7891 47.9141 47.9297 47.8359C48.0703 47.7578 48.2031 47.6562 48.3281 47.5312C48.6094 47.25 48.75 46.8984 48.75 46.4766C48.75 46.0547 48.6094 45.7031 48.3281 45.4219ZM20.1094 36C17.1094 36 14.3438 35.2578 11.8125 33.7734C9.28125 32.2891 7.28125 30.2812 5.8125 27.75C4.34375 25.2188 3.60938 22.4688 3.60938 19.5C3.60938 16.5312 4.34375 13.7812 5.8125 11.25C7.28125 8.71875 9.28125 6.71094 11.8125 5.22656C14.3438 3.74219 17.1016 3 20.0859 3C23.0703 3 25.8281 3.74219 28.3594 5.22656C30.8906 6.71094 32.8984 8.71875 34.3828 11.25C35.8672 13.7812 36.6094 16.5312 36.6094 19.5C36.6094 23.9062 35.0781 27.7031 32.0156 30.8906C28.9844 34.0469 25.2969 35.75 20.9531 36H20.1094ZM27.6094 18H21.6094V12C21.6094 11.5938 21.4609 11.2422 21.1641 10.9453C20.8672 10.6484 20.5078 10.5 20.0859 10.5C19.6641 10.5 19.3125 10.6484 19.0312 10.9453C18.75 11.2422 18.6094 11.5938 18.6094 12V18H12.6094C12.1719 18 11.8125 18.1484 11.5312 18.4453C11.25 18.7422 11.1094 19.0938 11.1094 19.5C11.1094 19.9062 11.25 20.2578 11.5312 20.5547C11.8125 20.8516 12.1719 21 12.6094 21H18.6094V27C18.6094 27.4062 18.75 27.7578 19.0312 28.0547C19.3125 28.3516 19.6641 28.5 20.0859 28.5C20.5078 28.5 20.8672 28.3516 21.1641 28.0547C21.4609 27.7578 21.6094 27.4062 21.6094 27V21H27.6094C28.0156 21 28.3672 20.8516 28.6641 20.5547C28.9609 20.2578 29.1094 19.9062 29.1094 19.5C29.1094 19.0938 28.9609 18.7422 28.6641 18.4453C28.3672 18.1484 28.0156 18 27.6094 18Z" fill="#FBFFFA"/>
</g>
<defs>
<clipPath id="clip0">
<rect width="48.75" height="48" fill="white"/>
</clipPath>
</defs>
</svg>
